<svg height="512" viewBox="0 0 60 60" width="512" xmlns="http://www.w3.org/2000/svg"><g id="Page-1" fill="none" fill-rule="evenodd"><g id="006---AR-Phone-Projection" fill-rule="nonzero"><g id="Icons" transform="translate(1 1)"><path id="Shape" d="m58 52c-.0156833.5464237-.2479091 1.0642082-.6455379 1.4393298-.3976289.3751215-.9280519.576817-1.4744621.5606702h-3.88l-1.89-4.31h-.11l-2.92-.49c-.7312013-.121245-1.3353929-.6369245-1.57-1.34l-1.07-3.21c-.320186-.9460665.1066687-1.9833234 1-2.43l1.06-.53h.11l-1.61-3.69h1.77c1.4354563-.0118588 2.78216.6933788 3.59 1.88l7.31 11.06c.2152254.3115579.3303435.6813311.33 1.06z" fill="#a4c2f7"/><path id="Shape" d="m57.67 50.94-7.31-11.06c-.80784-1.1866212-2.1545437-1.8918588-3.59-1.88l-1.77-.0001472.091.2081472c.9254537.281119 1.7263997.8713269 2.269 1.672l7.31 11.06c.2152254.3115579.3303435.6813311.33 1.06-.0156833.5464237-.2479091 1.0642082-.6455379 1.4393298-.3976289.3751215-.9280519.576817-1.4744621.5606702h3c.5464102.0161468 1.0768332-.1855487 1.4744621-.5606702.3976288-.3751216.6298546-.8929061.6455379-1.4393298.0003435-.3786689-.1147746-.7484421-.33-1.06z" fill="#7facfa"/><path id="Shape" d="m52 54h-45l7-16h2.42l4.58 7h16l4.58-7h3.42l1.61 3.69h-.11l-1.06.53c-.8933313.4466766-1.320186 1.4839335-1 2.43l1.07 3.21c.2346071.7030755.8387987 1.218755 1.57 1.34l2.92.49h.11z" fill="#e8edfc"/><path id="Shape" d="m14 37.9998528-7 16.0001472h-4.88c-.54641024.0161468-1.07683322-.1855487-1.47446206-.5606702-.39762884-.3751216-.62985465-.8929061-.64553794-1.4393298-.00034347-.3786689.11477459-.7484421.33-1.06l7.31-11.06c.80784003-1.1866212 2.15454371-1.8918588 3.59-1.88z" fill="#a4c2f7"/><path id="Shape" d="m58 52v4c-.0032948 1.1032019-.8967981 1.9967052-2 2h-54c-1.10320187-.0032948-1.9967052-.8967981-2-2v-4c.01568329.5464237.2479091 1.0642082.64553794 1.4393298.39762884.3751215.92805182.576817 1.47446206.5606702h53.76c.5464102.0161468 1.0768332-.1855487 1.4744621-.5606702.3976288-.3751216.6298546-.8929061.6455379-1.4393298z" fill="#a4c2f7"/><path id="Shape" d="m55.88 54h-.88v2c-.0032948 1.1032019-.8967981 1.9967052-2 2h3c1.1032019-.0032948 1.9967052-.8967981 2-2v-4c-.0156833.5464237-.2479091 1.0642082-.6455379 1.4393298-.3976289.3751215-.9280519.576817-1.4744621.5606702z" fill="#7facfa"/><path id="Shape" d="m42 7v14l-13 7-13-7v-14l13-7z" fill="#e8edfc"/><path id="Shape" d="m29 0-1.5.808 11.5 6.192v14l-11.5 6.192 1.5.808 13-7v-14z" fill="#cad9fc"/></g><g id="Icons_copy_2" fill="#fff" transform="translate(0 1)"><path id="Shape" d="m17.085 6.954-.02.011z"/><path id="Shape" d="m17.065 6.965-.022.012z"/><path id="Shape" d="m17.213 6.885-.128.069z"/><path id="Shape" d="m17 7v14l.762.41c-.302-.162-4.717-2.539 12.238 6.59l1.5-.808-10.738-5.782-.762-.41v-14l.585-.315-.372.2-.128.069-.02.011-.022.012.022-.012.02-.011.128-.069 11.287-6.077-1.5-.808-12.787 6.885.372-.2z"/><path id="Shape" d="m3 58h3c-1.10320187-.0032948-1.9967052-.8967981-2-2 0-4.375-.108-4.413.33-5.06l7.31-11.06c.80784-1.1866212 2.1545437-1.8918588 3.59-1.8801472l-3 .0001472c-1.4354563-.0118588-2.78215997.6933788-3.59 1.88l-7.31 11.06c-.438.647-.33.685-.33 5.06.0032948 1.1032019.89679813 1.9967052 2 2z"/></g><g id="Icons_copy"><path id="Rectangle-path" d="m2.423 43.202h7.997v1.999h-7.997z" fill="#fff" transform="matrix(.551 -.834 .834 .551 -33.998 25.194)"/><g fill="#428dff"><path id="Shape" d="m6.454 45.217c-.55228473.0027614-1.00223852-.4427153-1.00499994-.995-.00276143-.5522847.44271521-1.0022385.99499994-1.005h.01c.55228475 0 1 .4477153 1 1s-.44771525 1-1 1z"/><path id="Shape" d="m52.192 40.325c-.9912762-1.4670275-2.6515271-2.3399545-4.422-2.325h-3.344l11.411-17.453c.2018671-.2990627.2269735-.6836811.065697-1.0064483-.1612764-.3227673-.483923-.5336247-.8442838-.5517602-.3603608-.0181354-.7025466.1592638-.8954132.4642085l-16.704 25.547h-14.918l-16.704-25.547c-.19286656-.3049447-.53505243-.4823439-.89541323-.4642085-.36036079.0181355-.68300733.2289929-.84428378.5517602-.16127644.3227672-.13617006.7073856.06569701 1.0064483l11.411 17.453h-3.344c-1.7704729-.0149545-3.43072382.8579725-4.422 2.325-.1982824.297245-.22292459.6776931-.0646441.9980331.1582805.3203401.4754371.5319049.832.555s.6983617-.1457881.8966441-.4430331c.620838-.9102138 1.6563042-1.4489716 2.758-1.435h1.241l-6.125 14h-4.226c-.58477269.0312839-1.08509482-.4154323-1.12-1-.00004358-.1788025.05475384-.3533165.157-.5v-.011l2.9-4.386c.24063888-.2947955.2931042-.7006219.1353463-1.0469222-.1577579-.3463002-.49839403-.5730484-.87874889-.5849487-.38035487-.0119003-.73449959.19311-.91359741.5288709l-2.9 4.378v.011c-.32557506.4741636-.49989472 1.0358216-.5 1.611v4c0 1.6568542 1.34314575 3 3 3h54c1.6568542 0 3-1.3431458 3-3v-4c.0011577-.5753693-.1732759-1.1373941-.5-1.611zm-36.538-.325h1.228l4.281 6.547c.1846545.2825966.4994231.4529552.837.453h16c.3375769-.0000448.6523455-.1704034.837-.453l4.281-6.547h2.227l.95 2.175-.306.153c-1.3298694.6757789-1.9671103 2.2213004-1.5 3.638l1.069 3.206c.3472689 1.058644 1.2553834 1.8356507 2.355 2.015l2.505.42 1.051 2.393h-41.94zm41.346 18h-54c-.55228475 0-1-.4477153-1-1v-1.208c.35788851.1357606.73723125.2062099 1.12.208h53.76c.3827687-.0017901.7621115-.0722394 1.12-.208v1.208c0 .5522847-.4477153 1-1 1zm-.12-4h-3.226l-1.628-3.711c-.158974-.3642554-.5185648-.5997952-.916-.6l-2.868-.477c-.3645948-.061126-.6657233-.318412-.783-.669l-1.071-3.213c-.16067-.4733302.0528448-.992598.5-1.216l.87-.435c.3077613-.0459094.5766134-.232467.7273297-.5046972.1507164-.2722302.1661195-.5991062.0416703-.8843028l-1-2.29h.242c1.1002376-.0141962 2.1346466.5229008 2.756 1.431l7.318 11.069c.1022462.1466835.1570436.3211975.157.5-.0349052.5845677-.5352273 1.0312839-1.12 1z"/><path id="Shape" d="m25.526 13.731 3.474 1.869v2.4c0 .5522847.4477153 1 1 1s1-.4477153 1-1v-2.4l3.474-1.867c.4865629-.261783.668783-.8684371.407-1.355s-.8684371-.668783-1.355-.407l-3.526 1.894-3.526-1.9c-.4865629-.261783-1.093217-.0795629-1.355.407s-.0795629 1.093217.407 1.355z"/><path id="Shape" d="m16.526 22.88 13 7c.2959236.1593002.6520764.1593002.948 0l13-7c.3237997-.1743063.525807-.5122652.526-.88v-14c-.0001367-.35174583-.1850653-.6775544-.487-.858-.013-.008-.028-.011-.042-.018l-13-7c-.2959236-.15930021-.6520764-.15930021-.948 0l-13 7c-.014.007-.029.01-.042.018-.2996323.18192763-.4821296.50746337-.481.858v14c.000193.3677348.2022003.7056937.526.88zm13.474-20.744 10.889 5.864-2.363 1.27c-.4865629.26178297-.668783.8684371-.407 1.355s.8684371.668783 1.355.407l2.526-1.359v11.727l-11 5.926v-3.326c0-.5522847-.4477153-1-1-1s-1 .4477153-1 1v3.326l-11-5.926v-11.727l2.526 1.358c.4865629.261783 1.093217.0795629 1.355-.407s.0795629-1.09321703-.407-1.355l-2.363-1.269z"/></g></g></g></g></svg>